<svg width="127" height="127" viewBox="0 0 127 127" fill="none" xmlns="http://www.w3.org/2000/svg">
<path d="M3.49155 0.0625H0.0625V3.49155H3.49155V0.0625Z" fill="white"/>
<path d="M6.92061 0.0625H3.49155V3.49155H6.92061V0.0625Z" fill="white"/>
<path d="M10.3497 0.0625H6.92061V3.49155H10.3497V0.0625Z" fill="white"/>
<path d="M13.7787 0.0625H10.3497V3.49155H13.7787V0.0625Z" fill="white"/>
<path d="M17.2078 0.0625H13.7787V3.49155H17.2078V0.0625Z" fill="white"/>
<path d="M20.6368 0.0625H17.2078V3.49155H20.6368V0.0625Z" fill="white"/>
<path d="M24.0659 0.0625H20.6368V3.49155H24.0659V0.0625Z" fill="white"/>
<path d="M30.924 0.0625H27.4949V3.49155H30.924V0.0625Z" fill="white"/>
<path d="M37.7821 0.0625H34.353V3.49155H37.7821V0.0625Z" fill="white"/>
<path d="M44.6402 0.0625H41.2112V3.49155H44.6402V0.0625Z" fill="white"/>
<path d="M54.9274 0.0625H51.4983V3.49155H54.9274V0.0625Z" fill="white"/>
<path d="M61.7855 0.0625H58.3564V3.49155H61.7855V0.0625Z" fill="white"/>
<path d="M72.0726 0.0625H68.6436V3.49155H72.0726V0.0625Z" fill="white"/>
<path d="M75.5017 0.0625H72.0726V3.49155H75.5017V0.0625Z" fill="white"/>
<path d="M82.3598 0.0625H78.9307V3.49155H82.3598V0.0625Z" fill="white"/>
<path d="M85.7889 0.0625H82.3598V3.49155H85.7889V0.0625Z" fill="white"/>
<path d="M89.2179 0.0625H85.7889V3.49155H89.2179V0.0625Z" fill="white"/>
<path d="M92.647 0.0625H89.2179V3.49155H92.647V0.0625Z" fill="white"/>
<path d="M96.076 0.0625H92.647V3.49155H96.076V0.0625Z" fill="white"/>
<path d="M99.5051 0.0625H96.076V3.49155H99.5051V0.0625Z" fill="white"/>
<path d="M106.363 0.0625H102.934V3.49155H106.363V0.0625Z" fill="white"/>
<path d="M109.792 0.0625H106.363V3.49155H109.792V0.0625Z" fill="white"/>
<path d="M113.221 0.0625H109.792V3.49155H113.221V0.0625Z" fill="white"/>
<path d="M116.65 0.0625H113.221V3.49155H116.65V0.0625Z" fill="white"/>
<path d="M120.079 0.0625H116.65V3.49155H120.079V0.0625Z" fill="white"/>
<path d="M123.508 0.0625H120.079V3.49155H123.508V0.0625Z" fill="white"/>
<path d="M126.938 0.0625H123.508V3.49155H126.938V0.0625Z" fill="white"/>
<path d="M3.49155 3.49155H0.0625V6.92061H3.49155V3.49155Z" fill="white"/>
<path d="M24.0659 3.49155H20.6368V6.92061H24.0659V3.49155Z" fill="white"/>
<path d="M41.2112 3.49155H37.7821V6.92061H41.2111L41.2112 3.49155Z" fill="white"/>
<path d="M44.6402 3.49155H41.2112L41.2111 6.92061H44.6402V3.49155Z" fill="white"/>
<path d="M54.9274 3.49155H51.4983V6.92061H54.9274V3.49155Z" fill="white"/>
<path d="M61.7855 3.49155H58.3564V6.92061H61.7855V3.49155Z" fill="white"/>
<path d="M75.5017 3.49155H72.0726V6.92061H75.5017V3.49155Z" fill="white"/>
<path d="M85.7889 3.49155H82.3598V6.92061H85.7889V3.49155Z" fill="white"/>
<path d="M106.363 3.49155H102.934V6.92061H106.363V3.49155Z" fill="white"/>
<path d="M126.938 3.49155H123.508V6.92061H126.938V3.49155Z" fill="white"/>
<path d="M3.49155 6.92061H0.0625V10.3497H3.49155V6.92061Z" fill="white"/>
<path d="M10.3497 6.92061H6.92061V10.3497H10.3497V6.92061Z" fill="white"/>
<path d="M13.7787 6.92061H10.3497V10.3497H13.7787V6.92061Z" fill="white"/>
<path d="M17.2078 6.92061H13.7787V10.3497H17.2078V6.92061Z" fill="white"/>
<path d="M24.0659 6.92061H20.6368V10.3497H24.0659V6.92061Z" fill="white"/>
<path d="M34.353 6.92061H30.924V10.3497H34.353V6.92061Z" fill="white"/>
<path d="M37.7821 6.92061H34.353V10.3497H37.7821V6.92061Z" fill="white"/>
<path d="M41.2111 6.92061H37.7821V10.3497H41.2111V6.92061Z" fill="white"/>
<path d="M48.0693 6.92061H44.6402L44.6402 10.3497H48.0693V6.92061Z" fill="white"/>
<path d="M58.3564 6.92061H54.9274L54.9274 10.3497H58.3564L58.3564 6.92061Z" fill="white"/>
<path d="M61.7855 6.92061H58.3564L58.3564 10.3497H61.7855V6.92061Z" fill="white"/>
<path d="M65.2145 6.92061H61.7855V10.3497H65.2145V6.92061Z" fill="white"/>
<path d="M68.6436 6.92061H65.2145V10.3497H68.6436V6.92061Z" fill="white"/>
<path d="M72.0726 6.92061H68.6436V10.3497H72.0726V6.92061Z" fill="white"/>
<path d="M89.2179 6.92061H85.7889V10.3497H89.2179V6.92061Z" fill="white"/>
<path d="M99.5051 6.92061H96.076V10.3497H99.5051V6.92061Z" fill="white"/>
<path d="M106.363 6.92061H102.934V10.3497H106.363V6.92061Z" fill="white"/>
<path d="M113.221 6.92061H109.792V10.3497H113.221V6.92061Z" fill="white"/>
<path d="M116.65 6.92061H113.221V10.3497H116.65V6.92061Z" fill="white"/>
<path d="M120.079 6.92061H116.65V10.3497H120.079V6.92061Z" fill="white"/>
<path d="M126.938 6.92061H123.508V10.3497H126.938V6.92061Z" fill="white"/>
<path d="M3.49155 10.3497H0.0625V13.7787H3.49155V10.3497Z" fill="white"/>
<path d="M10.3497 10.3497H6.92061V13.7787H10.3497V10.3497Z" fill="white"/>
<path d="M13.7787 10.3497H10.3497V13.7787H13.7787V10.3497Z" fill="white"/>
<path d="M17.2078 10.3497H13.7787V13.7787H17.2078V10.3497Z" fill="white"/>
<path d="M24.0659 10.3497H20.6368V13.7787H24.0659V10.3497Z" fill="white"/>
<path d="M37.7821 10.3497H34.353V13.7787H37.7821V10.3497Z" fill="white"/>
<path d="M51.4983 10.3497H48.0693V13.7787H51.4983V10.3497Z" fill="white"/>
<path d="M54.9274 10.3497H51.4983V13.7787H54.9274L54.9274 10.3497Z" fill="white"/>
<path d="M61.7855 10.3497H58.3564L58.3564 13.7787H61.7855V10.3497Z" fill="white"/>
<path d="M72.0726 10.3497H68.6436V13.7787H72.0726V10.3497Z" fill="white"/>
<path d="M75.5017 10.3497H72.0726V13.7787H75.5017V10.3497Z" fill="white"/>
<path d="M92.647 10.3497H89.2179V13.7787H92.647V10.3497Z" fill="white"/>
<path d="M96.076 10.3497H92.647V13.7787H96.076V10.3497Z" fill="white"/>
<path d="M99.5051 10.3497H96.076V13.7787H99.5051V10.3497Z" fill="white"/>
<path d="M106.363 10.3497H102.934V13.7787H106.363V10.3497Z" fill="white"/>
<path d="M113.221 10.3497H109.792V13.7787H113.221V10.3497Z" fill="white"/>
<path d="M116.65 10.3497H113.221V13.7787H116.65V10.3497Z" fill="white"/>
<path d="M120.079 10.3497H116.65V13.7787H120.079V10.3497Z" fill="white"/>
<path d="M126.938 10.3497H123.508V13.7787H126.938V10.3497Z" fill="white"/>
<path d="M3.49155 13.7787H0.0625V17.2078H3.49155V13.7787Z" fill="white"/>
<path d="M10.3497 13.7787H6.92061V17.2078H10.3497V13.7787Z" fill="white"/>
<path d="M13.7787 13.7787H10.3497V17.2078H13.7787V13.7787Z" fill="white"/>
<path d="M17.2078 13.7787H13.7787V17.2078H17.2078V13.7787Z" fill="white"/>
<path d="M24.0659 13.7787H20.6368V17.2078H24.0659V13.7787Z" fill="white"/>
<path d="M51.4983 13.7787H48.0693V17.2078H51.4983V13.7787Z" fill="white"/>
<path d="M54.9274 13.7787H51.4983V17.2078H54.9274V13.7787Z" fill="white"/>
<path d="M61.7855 13.7787H58.3564V17.2078H61.7855V13.7787Z" fill="white"/>
<path d="M65.2145 13.7787H61.7855V17.2078H65.2145V13.7787Z" fill="white"/>
<path d="M68.6436 13.7787H65.2145V17.2078H68.6436V13.7787Z" fill="white"/>
<path d="M72.0726 13.7787H68.6436V17.2078H72.0726V13.7787Z" fill="white"/>
<path d="M96.076 13.7787H92.647V17.2078H96.076V13.7787Z" fill="white"/>
<path d="M99.5051 13.7787H96.076V17.2078H99.5051V13.7787Z" fill="white"/>
<path d="M106.363 13.7787H102.934V17.2078H106.363V13.7787Z" fill="white"/>
<path d="M113.221 13.7787H109.792V17.2078H113.221V13.7787Z" fill="white"/>
<path d="M116.65 13.7787H113.221V17.2078H116.65V13.7787Z" fill="white"/>
<path d="M120.079 13.7787H116.65V17.2078H120.079V13.7787Z" fill="white"/>
<path d="M126.938 13.7787H123.508V17.2078H126.938V13.7787Z" fill="white"/>
<path d="M3.49155 17.2078H0.0625V20.6368H3.49155V17.2078Z" fill="white"/>
<path d="M24.0659 17.2078H20.6368V20.6368H24.0659V17.2078Z" fill="white"/>
<path d="M41.2111 17.2078H37.7821V20.6368H41.2111V17.2078Z" fill="white"/>
<path d="M54.9274 17.2078H51.4983L51.4983 20.6368H54.9274V17.2078Z" fill="white"/>
<path d="M61.7855 17.2078H58.3564V20.6368H61.7855V17.2078Z" fill="white"/>
<path d="M65.2145 17.2078H61.7855V20.6368H65.2145V17.2078Z" fill="white"/>
<path d="M68.6436 17.2078H65.2145V20.6368H68.6436V17.2078Z" fill="white"/>
<path d="M72.0726 17.2078H68.6436V20.6368H72.0726V17.2078Z" fill="white"/>
<path d="M82.3598 17.2078H78.9307V20.6368H82.3598V17.2078Z" fill="white"/>
<path d="M85.7889 17.2078H82.3598V20.6368H85.7889V17.2078Z" fill="white"/>
<path d="M92.647 17.2078H89.2179V20.6368H92.647V17.2078Z" fill="white"/>
<path d="M106.363 17.2078H102.934V20.6368H106.363V17.2078Z" fill="white"/>
<path d="M126.938 17.2078H123.508V20.6368H126.938V17.2078Z" fill="white"/>
<path d="M3.49155 20.6368H0.0625V24.0659H3.49155V20.6368Z" fill="white"/>
<path d="M6.92061 20.6368H3.49155V24.0659H6.92061V20.6368Z" fill="white"/>
<path d="M10.3497 20.6368H6.92061V24.0659H10.3497V20.6368Z" fill="white"/>
<path d="M13.7787 20.6368H10.3497V24.0659H13.7787V20.6368Z" fill="white"/>
<path d="M17.2078 20.6368H13.7787V24.0659H17.2078V20.6368Z" fill="white"/>
<path d="M20.6368 20.6368H17.2078V24.0659H20.6368V20.6368Z" fill="white"/>
<path d="M24.0659 20.6368H20.6368V24.0659H24.0659V20.6368Z" fill="white"/>
<path d="M30.924 20.6368H27.4949V24.0659H30.924V20.6368Z" fill="white"/>
<path d="M37.7821 20.6368H34.353V24.0659H37.7821V20.6368Z" fill="white"/>
<path d="M44.6402 20.6368H41.2111L41.2112 24.0659H44.6402V20.6368Z" fill="white"/>
<path d="M51.4983 20.6368H48.0693V24.0659H51.4983L51.4983 20.6368Z" fill="white"/>
<path d="M58.3564 20.6368H54.9274L54.9274 24.0659H58.3564L58.3564 20.6368Z" fill="white"/>
<path d="M65.2145 20.6368H61.7855L61.7855 24.0659H65.2145V20.6368Z" fill="white"/>
<path d="M72.0726 20.6368H68.6436V24.0659H72.0726V20.6368Z" fill="white"/>
<path d="M78.9307 20.6368H75.5017V24.0659H78.9307V20.6368Z" fill="white"/>
<path d="M85.7889 20.6368H82.3598V24.0659H85.7889V20.6368Z" fill="white"/>
<path d="M92.647 20.6368H89.2179V24.0659H92.647V20.6368Z" fill="white"/>
<path d="M99.5051 20.6368H96.076V24.0659H99.5051V20.6368Z" fill="white"/>
<path d="M106.363 20.6368H102.934V24.0659H106.363V20.6368Z" fill="white"/>
<path d="M109.792 20.6368H106.363V24.0659H109.792V20.6368Z" fill="white"/>
<path d="M113.221 20.6368H109.792V24.0659H113.221V20.6368Z" fill="white"/>
<path d="M116.65 20.6368H113.221V24.0659H116.65V20.6368Z" fill="white"/>
<path d="M120.079 20.6368H116.65V24.0659H120.079V20.6368Z" fill="white"/>
<path d="M123.508 20.6368H120.079V24.0659H123.508V20.6368Z" fill="white"/>
<path d="M126.938 20.6368H123.508V24.0659H126.938V20.6368Z" fill="white"/>
<path d="M34.353 24.0659H30.924V27.4949H34.353V24.0659Z" fill="white"/>
<path d="M41.2112 24.0659H37.7821V27.4949H41.2111L41.2112 24.0659Z" fill="white"/>
<path d="M44.6402 24.0659H41.2112L41.2111 27.4949H44.6402V24.0659Z" fill="white"/>
<path d="M51.4983 24.0659H48.0693V27.4949H51.4983V24.0659Z" fill="white"/>
<path d="M54.9274 24.0659H51.4983V27.4949H54.9274L54.9274 24.0659Z" fill="white"/>
<path d="M58.3564 24.0659H54.9274L54.9274 27.4949H58.3564V24.0659Z" fill="white"/>
<path d="M65.2145 24.0659H61.7855V27.4949H65.2145V24.0659Z" fill="white"/>
<path d="M68.6436 24.0659H65.2145V27.4949H68.6436V24.0659Z" fill="white"/>
<path d="M75.5017 24.0659H72.0726V27.4949H75.5017V24.0659Z" fill="white"/>
<path d="M78.9307 24.0659H75.5017V27.4949H78.9307V24.0659Z" fill="white"/>
<path d="M82.3598 24.0659H78.9307V27.4949H82.3598V24.0659Z" fill="white"/>
<path d="M85.7889 24.0659H82.3598V27.4949H85.7889V24.0659Z" fill="white"/>
<path d="M89.2179 24.0659H85.7889V27.4949H89.2179V24.0659Z" fill="white"/>
<path d="M96.076 24.0659H92.647V27.4949H96.076V24.0659Z" fill="white"/>
<path d="M99.5051 24.0659H96.076V27.4949H99.5051V24.0659Z" fill="white"/>
<path d="M6.92061 27.4949H3.49155V30.924H6.92061V27.4949Z" fill="white"/>
<path d="M10.3497 27.4949H6.92061V30.924H10.3497V27.4949Z" fill="white"/>
<path d="M13.7787 27.4949H10.3497V30.924H13.7787V27.4949Z" fill="white"/>
<path d="M24.0659 27.4949H20.6368V30.924H24.0659V27.4949Z" fill="white"/>
<path d="M27.4949 27.4949H24.0659V30.924H27.4949V27.4949Z" fill="white"/>
<path d="M30.924 27.4949H27.4949V30.924H30.924V27.4949Z" fill="white"/>
<path d="M34.353 27.4949H30.924V30.924H34.353V27.4949Z" fill="white"/>
<path d="M44.6402 27.4949H41.2111L41.2112 30.924H44.6402V27.4949Z" fill="white"/>
<path d="M48.0693 27.4949H44.6402V30.924H48.0693V27.4949Z" fill="white"/>
<path d="M65.2145 27.4949H61.7855V30.924H65.2145V27.4949Z" fill="white"/>
<path d="M72.0726 27.4949H68.6436V30.924H72.0726V27.4949Z" fill="white"/>
<path d="M75.5017 27.4949H72.0726V30.924H75.5017V27.4949Z" fill="white"/>
<path d="M82.3598 27.4949H78.9307V30.924H82.3598V27.4949Z" fill="white"/>
<path d="M89.2179 27.4949H85.7889V30.924H89.2179V27.4949Z" fill="white"/>
<path d="M96.076 27.4949H92.647V30.924H96.076V27.4949Z" fill="white"/>
<path d="M102.934 27.4949H99.5051V30.924H102.934V27.4949Z" fill="white"/>
<path d="M126.938 27.4949H123.508V30.924H126.938V27.4949Z" fill="white"/>
<path d="M10.3497 30.924H6.92061V34.353H10.3497V30.924Z" fill="white"/>
<path d="M13.7787 30.924H10.3497V34.353H13.7787V30.924Z" fill="white"/>
<path d="M20.6368 30.924H17.2078V34.353H20.6368V30.924Z" fill="white"/>
<path d="M44.6402 30.924H41.2112V34.353H44.6402V30.924Z" fill="white"/>
<path d="M51.4983 30.924H48.0693V34.353H51.4983V30.924Z" fill="white"/>
<path d="M61.7855 30.924H58.3564V34.353H61.7855L61.7855 30.924Z" fill="white"/>
<path d="M65.2145 30.924H61.7855L61.7855 34.353H65.2145V30.924Z" fill="white"/>
<path d="M72.0726 30.924H68.6436V34.353H72.0726V30.924Z" fill="white"/>
<path d="M75.5017 30.924H72.0726V34.353H75.5017V30.924Z" fill="white"/>
<path d="M85.7889 30.924H82.3598V34.353H85.7889V30.924Z" fill="white"/>
<path d="M92.647 30.924H89.2179V34.353H92.647V30.924Z" fill="white"/>
<path d="M109.792 30.924H106.363V34.353H109.792V30.924Z" fill="white"/>
<path d="M116.65 30.924H113.221V34.353H116.65V30.924Z" fill="white"/>
<path d="M120.079 30.924H116.65V34.353H120.079V30.924Z" fill="white"/>
<path d="M6.92061 34.353H3.49155V37.7821H6.92061V34.353Z" fill="white"/>
<path d="M10.3497 34.353H6.92061V37.7821H10.3497V34.353Z" fill="white"/>
<path d="M24.0659 34.353H20.6368V37.7821H24.0659V34.353Z" fill="white"/>
<path d="M27.4949 34.353H24.0659V37.7821H27.4949V34.353Z" fill="white"/>
<path d="M30.924 34.353H27.4949V37.7821H30.924V34.353Z" fill="white"/>
<path d="M44.6402 34.353H41.2112V37.7821H44.6402V34.353Z" fill="white"/>
<path d="M51.4983 34.353H48.0693V37.7821H51.4983V34.353Z" fill="white"/>
<path d="M54.9274 34.353H51.4983V37.7821H54.9274V34.353Z" fill="white"/>
<path d="M58.3564 34.353H54.9274V37.7821H58.3564L58.3564 34.353Z" fill="white"/>
<path d="M61.7855 34.353H58.3564L58.3564 37.7821H61.7855V34.353Z" fill="white"/>
<path d="M68.6436 34.353H65.2145V37.7821H68.6436V34.353Z" fill="white"/>
<path d="M72.0726 34.353H68.6436V37.7821H72.0726V34.353Z" fill="white"/>
<path d="M78.9307 34.353H75.5017V37.7821H78.9307V34.353Z" fill="white"/>
<path d="M82.3598 34.353H78.9307V37.7821H82.3598V34.353Z" fill="white"/>
<path d="M89.2179 34.353H85.7889V37.7821H89.2179V34.353Z" fill="white"/>
<path d="M96.076 34.353H92.647V37.7821H96.076V34.353Z" fill="white"/>
<path d="M106.363 34.353H102.934V37.7821H106.363V34.353Z" fill="white"/>
<path d="M109.792 34.353H106.363V37.7821H109.792V34.353Z" fill="white"/>
<path d="M113.221 34.353H109.792V37.7821H113.221V34.353Z" fill="white"/>
<path d="M120.079 34.353H116.65V37.7821H120.079V34.353Z" fill="white"/>
<path d="M3.49155 37.7821H0.0625V41.2111H3.49155V37.7821Z" fill="white"/>
<path d="M10.3497 37.7821H6.92061V41.2111H10.3497V37.7821Z" fill="white"/>
<path d="M30.924 37.7821H27.4949V41.2111H30.924V37.7821Z" fill="white"/>
<path d="M37.7821 37.7821H34.353V41.2111H37.7821V37.7821Z" fill="white"/>
<path d="M44.6402 37.7821H41.2112V41.2111H44.6402V37.7821Z" fill="white"/>
<path d="M51.4983 37.7821H48.0693V41.2111H51.4983V37.7821Z" fill="white"/>
<path d="M58.3564 37.7821H54.9274L54.9274 41.2111H58.3564V37.7821Z" fill="white"/>
<path d="M61.7855 37.7821H58.3564V41.2111H61.7855V37.7821Z" fill="white"/>
<path d="M68.6436 37.7821H65.2145V41.2111H68.6436V37.7821Z" fill="white"/>
<path d="M72.0726 37.7821H68.6436V41.2111H72.0726V37.7821Z" fill="white"/>
<path d="M75.5017 37.7821H72.0726V41.2111H75.5017V37.7821Z" fill="white"/>
<path d="M78.9307 37.7821H75.5017V41.2111H78.9307V37.7821Z" fill="white"/>
<path d="M85.7889 37.7821H82.3598V41.2111H85.7889V37.7821Z" fill="white"/>
<path d="M89.2179 37.7821H85.7889V41.2111H89.2179V37.7821Z" fill="white"/>
<path d="M92.647 37.7821H89.2179V41.2111H92.647V37.7821Z" fill="white"/>
<path d="M96.076 37.7821H92.647V41.2111H96.076V37.7821Z" fill="white"/>
<path d="M99.5051 37.7821H96.076V41.2111H99.5051V37.7821Z" fill="white"/>
<path d="M109.792 37.7821H106.363V41.2111H109.792V37.7821Z" fill="white"/>
<path d="M116.65 37.7821H113.221V41.2111H116.65V37.7821Z" fill="white"/>
<path d="M120.079 37.7821H116.65V41.2111H120.079V37.7821Z" fill="white"/>
<path d="M126.938 37.7821H123.508V41.2111H126.938V37.7821Z" fill="white"/>
<path d="M6.92061 41.2111H3.49155V44.6402H6.92061V41.2111Z" fill="white"/>
<path d="M13.7787 41.2112L10.3497 41.2111V44.6402H13.7787V41.2112Z" fill="white"/>
<path d="M20.6368 41.2112H17.2078V44.6402H20.6368V41.2112Z" fill="white"/>
<path d="M24.0659 41.2112H20.6368V44.6402H24.0659V41.2112Z" fill="white"/>
<path d="M27.4949 41.2111L24.0659 41.2112V44.6402H27.4949V41.2111Z" fill="white"/>
<path d="M30.924 41.2111H27.4949V44.6402H30.924V41.2111Z" fill="white"/>
<path d="M34.353 41.2111H30.924V44.6402H34.353V41.2111Z" fill="white"/>
<path d="M41.2112 41.2111H37.7821V44.6402H41.2111L41.2112 41.2111Z" fill="white"/>
<path d="M51.4983 41.2111H48.0693V44.6402H51.4983V41.2111Z" fill="white"/>
<path d="M54.9274 41.2111H51.4983V44.6402H54.9274L54.9274 41.2111Z" fill="white"/>
<path d="M58.3564 41.2111H54.9274L54.9274 44.6402H58.3564V41.2111Z" fill="white"/>
<path d="M61.7855 41.2111H58.3564V44.6402H61.7855V41.2111Z" fill="white"/>
<path d="M75.5017 41.2111H72.0726V44.6402H75.5017V41.2111Z" fill="white"/>
<path d="M78.9307 41.2111H75.5017V44.6402H78.9307V41.2111Z" fill="white"/>
<path d="M96.076 41.2111H92.647V44.6402H96.076V41.2111Z" fill="white"/>
<path d="M99.5051 41.2111H96.076V44.6402H99.5051V41.2111Z" fill="white"/>
<path d="M102.934 41.2112L99.5051 41.2111V44.6402H102.934V41.2112Z" fill="white"/>
<path d="M109.792 41.2111H106.363V44.6402H109.792V41.2111Z" fill="white"/>
<path d="M120.079 41.2111H116.65V44.6402H120.079V41.2111Z" fill="white"/>
<path d="M123.508 41.2111H120.079V44.6402H123.508V41.2111Z" fill="white"/>
<path d="M126.938 41.2111H123.508V44.6402H126.938V41.2111Z" fill="white"/>
<path d="M3.49155 44.6402L0.0625 44.6402V48.0693H3.49155V44.6402Z" fill="white"/>
<path d="M6.92061 44.6402H3.49155V48.0693H6.92061V44.6402Z" fill="white"/>
<path d="M27.4949 44.6402H24.0659V48.0693H27.4949V44.6402Z" fill="white"/>
<path d="M30.924 44.6402H27.4949V48.0693H30.924V44.6402Z" fill="white"/>
<path d="M41.2111 44.6402H37.7821V48.0693H41.2111V44.6402Z" fill="white"/>
<path d="M44.6402 44.6402L41.2111 44.6402V48.0693H44.6402V44.6402Z" fill="white"/>
<path d="M51.4983 44.6402H48.0693V48.0693H51.4983V44.6402Z" fill="white"/>
<path d="M61.7855 44.6402H58.3564L58.3564 48.0693H61.7855V44.6402Z" fill="white"/>
<path d="M85.7889 44.6402H82.3598V48.0693H85.7889V44.6402Z" fill="white"/>
<path d="M89.2179 44.6402H85.7889V48.0693H89.2179V44.6402Z" fill="white"/>
<path d="M96.076 44.6402H92.647V48.0693H96.076V44.6402Z" fill="white"/>
<path d="M99.5051 44.6402H96.076V48.0693H99.5051V44.6402Z" fill="white"/>
<path d="M102.934 44.6402H99.5051V48.0693H102.934V44.6402Z" fill="white"/>
<path d="M106.363 44.6402H102.934V48.0693H106.363V44.6402Z" fill="white"/>
<path d="M113.221 44.6402L109.792 44.6402V48.0693H113.221V44.6402Z" fill="white"/>
<path d="M116.65 44.6402L113.221 44.6402V48.0693H116.65V44.6402Z" fill="white"/>
<path d="M120.079 44.6402H116.65V48.0693H120.079V44.6402Z" fill="white"/>
<path d="M126.938 44.6402H123.508V48.0693H126.938V44.6402Z" fill="white"/>
<path d="M6.92061 48.0693H3.49155V51.4983H6.92061V48.0693Z" fill="white"/>
<path d="M13.7787 48.0693H10.3497V51.4983H13.7787V48.0693Z" fill="white"/>
<path d="M17.2078 48.0693H13.7787V51.4983H17.2078V48.0693Z" fill="white"/>
<path d="M24.0659 48.0693H20.6368V51.4983H24.0659V48.0693Z" fill="white"/>
<path d="M34.353 48.0693H30.924V51.4983H34.353V48.0693Z" fill="white"/>
<path d="M41.2111 48.0693H37.7821V51.4983H41.2111V48.0693Z" fill="white"/>
<path d="M44.6402 48.0693H41.2111V51.4983H44.6402V48.0693Z" fill="white"/>
<path d="M51.4983 48.0693H48.0693V51.4983H51.4983V48.0693Z" fill="white"/>
<path d="M65.2145 48.0693H61.7855L61.7855 51.4983H65.2145V48.0693Z" fill="white"/>
<path d="M72.0726 48.0693H68.6436V51.4983H72.0726V48.0693Z" fill="white"/>
<path d="M75.5017 48.0693H72.0726V51.4983H75.5017V48.0693Z" fill="white"/>
<path d="M82.3598 48.0693H78.9307V51.4983H82.3598V48.0693Z" fill="white"/>
<path d="M102.934 48.0693H99.5051V51.4983H102.934V48.0693Z" fill="white"/>
<path d="M106.363 48.0693H102.934V51.4983H106.363V48.0693Z" fill="white"/>
<path d="M109.792 48.0693H106.363V51.4983H109.792V48.0693Z" fill="white"/>
<path d="M113.221 48.0693H109.792V51.4983H113.221V48.0693Z" fill="white"/>
<path d="M120.079 48.0693H116.65V51.4983H120.079V48.0693Z" fill="white"/>
<path d="M123.508 48.0693H120.079V51.4983H123.508V48.0693Z" fill="white"/>
<path d="M126.938 48.0693H123.508V51.4983H126.938V48.0693Z" fill="white"/>
<path d="M6.92061 51.4983H3.49155V54.9274H6.92061V51.4983Z" fill="white"/>
<path d="M13.7787 51.4983H10.3497V54.9274H13.7787V51.4983Z" fill="white"/>
<path d="M17.2078 51.4983H13.7787V54.9274H17.2078V51.4983Z" fill="white"/>
<path d="M27.4949 51.4983L24.0659 51.4983V54.9274H27.4949V51.4983Z" fill="white"/>
<path d="M30.924 51.4983L27.4949 51.4983V54.9274H30.924V51.4983Z" fill="white"/>
<path d="M41.2111 51.4983H37.7821V54.9274H41.2111V51.4983Z" fill="white"/>
<path d="M48.0693 51.4983H44.6402L44.6402 54.9274H48.0693V51.4983Z" fill="white"/>
<path d="M51.4983 51.4983H48.0693V54.9274H51.4983V51.4983Z" fill="white"/>
<path d="M65.2145 51.4983H61.7855V54.9274H65.2145V51.4983Z" fill="white"/>
<path d="M72.0726 51.4983H68.6436V54.9274H72.0726V51.4983Z" fill="white"/>
<path d="M78.9307 51.4983H75.5017V54.9274H78.9307V51.4983Z" fill="white"/>
<path d="M82.3598 51.4983H78.9307V54.9274H82.3598V51.4983Z" fill="white"/>
<path d="M85.7889 51.4983L82.3598 51.4983V54.9274H85.7889V51.4983Z" fill="white"/>
<path d="M96.076 51.4983H92.647V54.9274H96.076V51.4983Z" fill="white"/>
<path d="M102.934 51.4983H99.5051V54.9274H102.934V51.4983Z" fill="white"/>
<path d="M106.363 51.4983H102.934V54.9274H106.363V51.4983Z" fill="white"/>
<path d="M109.792 51.4983H106.363V54.9274H109.792V51.4983Z" fill="white"/>
<path d="M113.221 51.4983H109.792V54.9274H113.221V51.4983Z" fill="white"/>
<path d="M120.079 51.4983H116.65V54.9274H120.079V51.4983Z" fill="white"/>
<path d="M126.938 51.4983H123.508V54.9274H126.938V51.4983Z" fill="white"/>
<path d="M3.49155 54.9274L0.0625 54.9274V58.3564H3.49155V54.9274Z" fill="white"/>
<path d="M6.92061 54.9274H3.49155V58.3564H6.92061V54.9274Z" fill="white"/>
<path d="M13.7787 54.9274H10.3497V58.3564H13.7787V54.9274Z" fill="white"/>
<path d="M17.2078 54.9274H13.7787V58.3564H17.2078V54.9274Z" fill="white"/>
<path d="M20.6368 54.9274L17.2078 54.9274V58.3564H20.6368V54.9274Z" fill="white"/>
<path d="M24.0659 54.9274L20.6368 54.9274V58.3564H24.0659V54.9274Z" fill="white"/>
<path d="M41.2111 54.9274H37.7821V58.3564H41.2111V54.9274Z" fill="white"/>
<path d="M44.6402 54.9274H41.2111V58.3564H44.6402L44.6402 54.9274Z" fill="white"/>
<path d="M48.0693 54.9274H44.6402L44.6402 58.3564H48.0693V54.9274Z" fill="white"/>
<path d="M54.9274 54.9274L51.4983 54.9274L51.4983 58.3564H54.9274V54.9274Z" fill="white"/>
<path d="M58.3564 54.9274H54.9274V58.3564H58.3564V54.9274Z" fill="white"/>
<path d="M72.0726 54.9274H68.6436V58.3564H72.0726V54.9274Z" fill="white"/>
<path d="M78.9307 54.9274H75.5017V58.3564H78.9307V54.9274Z" fill="white"/>
<path d="M82.3598 54.9274H78.9307V58.3564H82.3598V54.9274Z" fill="white"/>
<path d="M85.7889 54.9274H82.3598V58.3564H85.7889V54.9274Z" fill="white"/>
<path d="M89.2179 54.9274L85.7889 54.9274V58.3564H89.2179V54.9274Z" fill="white"/>
<path d="M102.934 54.9274H99.5051V58.3564H102.934V54.9274Z" fill="white"/>
<path d="M109.792 54.9274H106.363V58.3564H109.792V54.9274Z" fill="white"/>
<path d="M113.221 54.9274H109.792V58.3564H113.221V54.9274Z" fill="white"/>
<path d="M116.65 54.9274H113.221V58.3564H116.65V54.9274Z" fill="white"/>
<path d="M120.079 54.9274H116.65V58.3564H120.079V54.9274Z" fill="white"/>
<path d="M3.49155 58.3564H0.0625V61.7855H3.49155V58.3564Z" fill="white"/>
<path d="M13.7787 58.3564H10.3497V61.7855H13.7787V58.3564Z" fill="white"/>
<path d="M37.7821 58.3564L34.353 58.3564V61.7855H37.7821V58.3564Z" fill="white"/>
<path d="M48.0693 58.3564H44.6402L44.6402 61.7855H48.0693V58.3564Z" fill="white"/>
<path d="M51.4983 58.3564H48.0693V61.7855H51.4983L51.4983 58.3564Z" fill="white"/>
<path d="M54.9274 58.3564H51.4983L51.4983 61.7855H54.9274V58.3564Z" fill="white"/>
<path d="M65.2145 58.3564H61.7855V61.7855H65.2145V58.3564Z" fill="white"/>
<path d="M72.0726 58.3564H68.6436V61.7855H72.0726V58.3564Z" fill="white"/>
<path d="M85.7889 58.3564H82.3598V61.7855H85.7889V58.3564Z" fill="white"/>
<path d="M92.647 58.3564L89.2179 58.3564V61.7855H92.647V58.3564Z" fill="white"/>
<path d="M99.5051 58.3564L96.076 58.3564V61.7855H99.5051V58.3564Z" fill="white"/>
<path d="M102.934 58.3564H99.5051V61.7855H102.934V58.3564Z" fill="white"/>
<path d="M109.792 58.3564H106.363V61.7855H109.792V58.3564Z" fill="white"/>
<path d="M116.65 58.3564H113.221V61.7855H116.65V58.3564Z" fill="white"/>
<path d="M126.938 58.3564H123.508V61.7855H126.938V58.3564Z" fill="white"/>
<path d="M3.49155 61.7855H0.0625V65.2145H3.49155V61.7855Z" fill="white"/>
<path d="M6.92061 61.7855L3.49155 61.7855V65.2145H6.92061V61.7855Z" fill="white"/>
<path d="M20.6368 61.7855H17.2078V65.2145H20.6368V61.7855Z" fill="white"/>
<path d="M24.0659 61.7855H20.6368V65.2145H24.0659V61.7855Z" fill="white"/>
<path d="M30.924 61.7855H27.4949V65.2145H30.924V61.7855Z" fill="white"/>
<path d="M44.6402 61.7855L41.2112 61.7855V65.2145H44.6402L44.6402 61.7855Z" fill="white"/>
<path d="M54.9274 61.7855H51.4983L51.4983 65.2145H54.9274V61.7855Z" fill="white"/>
<path d="M61.7855 61.7855L58.3564 61.7855V65.2145H61.7855L61.7855 61.7855Z" fill="white"/>
<path d="M68.6436 61.7855H65.2145V65.2145H68.6436V61.7855Z" fill="white"/>
<path d="M78.9307 61.7855H75.5017V65.2145H78.9307V61.7855Z" fill="white"/>
<path d="M85.7889 61.7855H82.3598V65.2145H85.7889V61.7855Z" fill="white"/>
<path d="M99.5051 61.7855H96.076V65.2145H99.5051V61.7855Z" fill="white"/>
<path d="M109.792 61.7855H106.363V65.2145H109.792V61.7855Z" fill="white"/>
<path d="M116.65 61.7855H113.221V65.2145H116.65V61.7855Z" fill="white"/>
<path d="M120.079 61.7855L116.65 61.7855V65.2145H120.079V61.7855Z" fill="white"/>
<path d="M3.49155 65.2145H0.0625V68.6436H3.49155V65.2145Z" fill="white"/>
<path d="M6.92061 65.2145H3.49155V68.6436H6.92061V65.2145Z" fill="white"/>
<path d="M10.3497 65.2145H6.92061V68.6436H10.3497V65.2145Z" fill="white"/>
<path d="M13.7787 65.2145H10.3497V68.6436H13.7787V65.2145Z" fill="white"/>
<path d="M44.6402 65.2145H41.2112V68.6436H44.6402V65.2145Z" fill="white"/>
<path d="M48.0693 65.2145H44.6402V68.6436H48.0693V65.2145Z" fill="white"/>
<path d="M58.3564 65.2145H54.9274L54.9274 68.6436H58.3564L58.3564 65.2145Z" fill="white"/>
<path d="M68.6436 65.2145H65.2145V68.6436H68.6436V65.2145Z" fill="white"/>
<path d="M72.0726 65.2145H68.6436V68.6436H72.0726V65.2145Z" fill="white"/>
<path d="M75.5017 65.2145H72.0726V68.6436H75.5017V65.2145Z" fill="white"/>
<path d="M82.3598 65.2145H78.9307V68.6436H82.3598V65.2145Z" fill="white"/>
<path d="M85.7889 65.2145H82.3598V68.6436H85.7889V65.2145Z" fill="white"/>
<path d="M102.934 65.2145H99.5051V68.6436H102.934V65.2145Z" fill="white"/>
<path d="M106.363 65.2145H102.934V68.6436H106.363V65.2145Z" fill="white"/>
<path d="M109.792 65.2145H106.363V68.6436H109.792V65.2145Z" fill="white"/>
<path d="M113.221 65.2145H109.792V68.6436H113.221V65.2145Z" fill="white"/>
<path d="M120.079 65.2145H116.65V68.6436H120.079V65.2145Z" fill="white"/>
<path d="M123.508 65.2145H120.079V68.6436H123.508V65.2145Z" fill="white"/>
<path d="M10.3497 68.6436H6.92061V72.0726H10.3497V68.6436Z" fill="white"/>
<path d="M17.2078 68.6436H13.7787V72.0726H17.2078V68.6436Z" fill="white"/>
<path d="M24.0659 68.6436H20.6368V72.0726H24.0659V68.6436Z" fill="white"/>
<path d="M27.4949 68.6436H24.0659V72.0726H27.4949V68.6436Z" fill="white"/>
<path d="M30.924 68.6436H27.4949V72.0726H30.924V68.6436Z" fill="white"/>
<path d="M34.353 68.6436H30.924V72.0726H34.353V68.6436Z" fill="white"/>
<path d="M37.7821 68.6436H34.353V72.0726H37.7821V68.6436Z" fill="white"/>
<path d="M44.6402 68.6436H41.2112V72.0726H44.6402V68.6436Z" fill="white"/>
<path d="M48.0693 68.6436H44.6402V72.0726H48.0693V68.6436Z" fill="white"/>
<path d="M51.4983 68.6436H48.0693V72.0726H51.4983V68.6436Z" fill="white"/>
<path d="M61.7855 68.6436H58.3564L58.3564 72.0726H61.7855V68.6436Z" fill="white"/>
<path d="M65.2145 68.6436H61.7855V72.0726H65.2145V68.6436Z" fill="white"/>
<path d="M68.6436 68.6436H65.2145V72.0726H68.6436V68.6436Z" fill="white"/>
<path d="M72.0726 68.6436H68.6436V72.0726H72.0726V68.6436Z" fill="white"/>
<path d="M75.5017 68.6436H72.0726V72.0726H75.5017V68.6436Z" fill="white"/>
<path d="M82.3598 68.6436H78.9307V72.0726H82.3598V68.6436Z" fill="white"/>
<path d="M92.647 68.6436H89.2179V72.0726H92.647V68.6436Z" fill="white"/>
<path d="M96.076 68.6436H92.647V72.0726H96.076V68.6436Z" fill="white"/>
<path d="M99.5051 68.6436H96.076V72.0726H99.5051V68.6436Z" fill="white"/>
<path d="M102.934 68.6436H99.5051V72.0726H102.934V68.6436Z" fill="white"/>
<path d="M109.792 68.6436H106.363V72.0726H109.792V68.6436Z" fill="white"/>
<path d="M123.508 68.6436H120.079V72.0726H123.508V68.6436Z" fill="white"/>
<path d="M3.49155 72.0726H0.0625V75.5017H3.49155V72.0726Z" fill="white"/>
<path d="M6.92061 72.0726H3.49155V75.5017H6.92061V72.0726Z" fill="white"/>
<path d="M10.3497 72.0726H6.92061V75.5017H10.3497V72.0726Z" fill="white"/>
<path d="M13.7787 72.0726H10.3497V75.5017H13.7787V72.0726Z" fill="white"/>
<path d="M20.6368 72.0726H17.2078V75.5017H20.6368V72.0726Z" fill="white"/>
<path d="M27.4949 72.0726H24.0659V75.5017H27.4949V72.0726Z" fill="white"/>
<path d="M30.924 72.0726H27.4949V75.5017H30.924V72.0726Z" fill="white"/>
<path d="M37.7821 72.0726H34.353V75.5017H37.7821V72.0726Z" fill="white"/>
<path d="M51.4983 72.0726H48.0693V75.5017H51.4983V72.0726Z" fill="white"/>
<path d="M58.3564 72.0726H54.9274V75.5017H58.3564L58.3564 72.0726Z" fill="white"/>
<path d="M65.2145 72.0726H61.7855L61.7855 75.5017H65.2145V72.0726Z" fill="white"/>
<path d="M75.5017 72.0726H72.0726V75.5017H75.5017V72.0726Z" fill="white"/>
<path d="M82.3598 72.0726H78.9307V75.5017H82.3598V72.0726Z" fill="white"/>
<path d="M85.7889 72.0726H82.3598V75.5017H85.7889V72.0726Z" fill="white"/>
<path d="M106.363 72.0726H102.934V75.5017H106.363V72.0726Z" fill="white"/>
<path d="M113.221 72.0726H109.792V75.5017H113.221V72.0726Z" fill="white"/>
<path d="M116.65 72.0726H113.221V75.5017H116.65V72.0726Z" fill="white"/>
<path d="M120.079 72.0726H116.65V75.5017H120.079V72.0726Z" fill="white"/>
<path d="M6.92061 75.5017H3.49155V78.9307H6.92061V75.5017Z" fill="white"/>
<path d="M10.3497 75.5017H6.92061V78.9307H10.3497V75.5017Z" fill="white"/>
<path d="M20.6368 75.5017H17.2078V78.9307H20.6368V75.5017Z" fill="white"/>
<path d="M24.0659 75.5017H20.6368V78.9307H24.0659V75.5017Z" fill="white"/>
<path d="M30.924 75.5017H27.4949V78.9307H30.924V75.5017Z" fill="white"/>
<path d="M34.353 75.5017H30.924V78.9307H34.353V75.5017Z" fill="white"/>
<path d="M41.2111 75.5017H37.7821V78.9307H41.2111V75.5017Z" fill="white"/>
<path d="M48.0693 75.5017H44.6402V78.9307H48.0693V75.5017Z" fill="white"/>
<path d="M61.7855 75.5017H58.3564L58.3564 78.9307H61.7855L61.7855 75.5017Z" fill="white"/>
<path d="M72.0726 75.5017H68.6436V78.9307H72.0726V75.5017Z" fill="white"/>
<path d="M75.5017 75.5017H72.0726V78.9307H75.5017V75.5017Z" fill="white"/>
<path d="M78.9307 75.5017H75.5017V78.9307H78.9307V75.5017Z" fill="white"/>
<path d="M99.5051 75.5017H96.076V78.9307H99.5051V75.5017Z" fill="white"/>
<path d="M106.363 75.5017H102.934V78.9307H106.363V75.5017Z" fill="white"/>
<path d="M109.792 75.5017H106.363V78.9307H109.792V75.5017Z" fill="white"/>
<path d="M126.938 75.5017H123.508V78.9307H126.938V75.5017Z" fill="white"/>
<path d="M3.49155 78.9307H0.0625V82.3598H3.49155V78.9307Z" fill="white"/>
<path d="M17.2078 78.9307H13.7787V82.3598H17.2078V78.9307Z" fill="white"/>
<path d="M27.4949 78.9307H24.0659V82.3598H27.4949V78.9307Z" fill="white"/>
<path d="M30.924 78.9307H27.4949V82.3598H30.924V78.9307Z" fill="white"/>
<path d="M37.7821 78.9307H34.353V82.3598H37.7821V78.9307Z" fill="white"/>
<path d="M41.2111 78.9307H37.7821V82.3598H41.2111V78.9307Z" fill="white"/>
<path d="M48.0693 78.9307H44.6402V82.3598H48.0693V78.9307Z" fill="white"/>
<path d="M58.3564 78.9307H54.9274V82.3598H58.3564L58.3564 78.9307Z" fill="white"/>
<path d="M65.2145 78.9307H61.7855L61.7855 82.3598H65.2145V78.9307Z" fill="white"/>
<path d="M72.0726 78.9307H68.6436V82.3598H72.0726V78.9307Z" fill="white"/>
<path d="M75.5017 78.9307H72.0726V82.3598H75.5017V78.9307Z" fill="white"/>
<path d="M82.3598 78.9307H78.9307V82.3598H82.3598V78.9307Z" fill="white"/>
<path d="M89.2179 78.9307H85.7889V82.3598H89.2179V78.9307Z" fill="white"/>
<path d="M102.934 78.9307H99.5051V82.3598H102.934V78.9307Z" fill="white"/>
<path d="M106.363 78.9307H102.934V82.3598H106.363V78.9307Z" fill="white"/>
<path d="M109.792 78.9307H106.363V82.3598H109.792V78.9307Z" fill="white"/>
<path d="M116.65 78.9307H113.221V82.3598H116.65V78.9307Z" fill="white"/>
<path d="M3.49155 82.3598H0.0625V85.7889H3.49155V82.3598Z" fill="white"/>
<path d="M10.3497 82.3598H6.92061V85.7889H10.3497V82.3598Z" fill="white"/>
<path d="M24.0659 82.3598H20.6368V85.7889H24.0659V82.3598Z" fill="white"/>
<path d="M30.924 82.3598H27.4949V85.7889H30.924V82.3598Z" fill="white"/>
<path d="M37.7821 82.3598H34.353V85.7889H37.7821V82.3598Z" fill="white"/>
<path d="M44.6402 82.3598H41.2111L41.2112 85.7889H44.6402L44.6402 82.3598Z" fill="white"/>
<path d="M48.0693 82.3598H44.6402L44.6402 85.7889H48.0693V82.3598Z" fill="white"/>
<path d="M58.3564 82.3598H54.9274V85.7889H58.3564V82.3598Z" fill="white"/>
<path d="M61.7855 82.3598H58.3564V85.7889H61.7855L61.7855 82.3598Z" fill="white"/>
<path d="M68.6436 82.3598H65.2145V85.7889H68.6436V82.3598Z" fill="white"/>
<path d="M72.0726 82.3598H68.6436V85.7889H72.0726V82.3598Z" fill="white"/>
<path d="M99.5051 82.3598H96.076V85.7889H99.5051V82.3598Z" fill="white"/>
<path d="M109.792 82.3598H106.363V85.7889H109.792V82.3598Z" fill="white"/>
<path d="M113.221 82.3598H109.792V85.7889H113.221V82.3598Z" fill="white"/>
<path d="M120.079 82.3598H116.65V85.7889H120.079V82.3598Z" fill="white"/>
<path d="M126.938 82.3598H123.508V85.7889H126.938V82.3598Z" fill="white"/>
<path d="M3.49155 85.7889H0.0625V89.2179H3.49155V85.7889Z" fill="white"/>
<path d="M13.7787 85.7889H10.3497V89.2179H13.7787V85.7889Z" fill="white"/>
<path d="M17.2078 85.7889H13.7787V89.2179H17.2078V85.7889Z" fill="white"/>
<path d="M20.6368 85.7889H17.2078V89.2179H20.6368V85.7889Z" fill="white"/>
<path d="M58.3564 85.7889H54.9274V89.2179H58.3564V85.7889Z" fill="white"/>
<path d="M72.0726 85.7889H68.6436V89.2179H72.0726V85.7889Z" fill="white"/>
<path d="M78.9307 85.7889H75.5017V89.2179H78.9307V85.7889Z" fill="white"/>
<path d="M99.5051 85.7889H96.076V89.2179H99.5051V85.7889Z" fill="white"/>
<path d="M106.363 85.7889H102.934V89.2179H106.363V85.7889Z" fill="white"/>
<path d="M113.221 85.7889H109.792V89.2179H113.221V85.7889Z" fill="white"/>
<path d="M116.65 85.7889H113.221V89.2179H116.65V85.7889Z" fill="white"/>
<path d="M120.079 85.7889H116.65V89.2179H120.079V85.7889Z" fill="white"/>
<path d="M3.49155 89.2179H0.0625V92.647H3.49155V89.2179Z" fill="white"/>
<path d="M6.92061 89.2179H3.49155V92.647H6.92061V89.2179Z" fill="white"/>
<path d="M17.2078 89.2179H13.7787V92.647H17.2078V89.2179Z" fill="white"/>
<path d="M24.0659 89.2179H20.6368V92.647H24.0659V89.2179Z" fill="white"/>
<path d="M27.4949 89.2179H24.0659V92.647H27.4949V89.2179Z" fill="white"/>
<path d="M30.924 89.2179H27.4949V92.647H30.924V89.2179Z" fill="white"/>
<path d="M34.353 89.2179H30.924V92.647H34.353V89.2179Z" fill="white"/>
<path d="M37.7821 89.2179H34.353V92.647H37.7821V89.2179Z" fill="white"/>
<path d="M41.2111 89.2179H37.7821V92.647H41.2111V89.2179Z" fill="white"/>
<path d="M58.3564 89.2179H54.9274V92.647H58.3564V89.2179Z" fill="white"/>
<path d="M61.7855 89.2179H58.3564V92.647H61.7855V89.2179Z" fill="white"/>
<path d="M65.2145 89.2179H61.7855V92.647H65.2145V89.2179Z" fill="white"/>
<path d="M72.0726 89.2179H68.6436V92.647H72.0726V89.2179Z" fill="white"/>
<path d="M75.5017 89.2179H72.0726V92.647H75.5017V89.2179Z" fill="white"/>
<path d="M82.3598 89.2179H78.9307V92.647H82.3598V89.2179Z" fill="white"/>
<path d="M89.2179 89.2179H85.7889V92.647H89.2179V89.2179Z" fill="white"/>
<path d="M92.647 89.2179H89.2179V92.647H92.647V89.2179Z" fill="white"/>
<path d="M113.221 89.2179H109.792V92.647H113.221V89.2179Z" fill="white"/>
<path d="M116.65 89.2179H113.221V92.647H116.65V89.2179Z" fill="white"/>
<path d="M120.079 89.2179H116.65V92.647H120.079V89.2179Z" fill="white"/>
<path d="M30.924 92.647H27.4949V96.076H30.924V92.647Z" fill="white"/>
<path d="M34.353 92.647H30.924V96.076H34.353V92.647Z" fill="white"/>
<path d="M37.7821 92.647H34.353V96.076H37.7821V92.647Z" fill="white"/>
<path d="M48.0693 92.647H44.6402V96.076H48.0693V92.647Z" fill="white"/>
<path d="M51.4983 92.647H48.0693V96.076H51.4983V92.647Z" fill="white"/>
<path d="M54.9274 92.647H51.4983V96.076H54.9274L54.9274 92.647Z" fill="white"/>
<path d="M61.7855 92.647H58.3564L58.3564 96.076H61.7855V92.647Z" fill="white"/>
<path d="M65.2145 92.647H61.7855V96.076H65.2145V92.647Z" fill="white"/>
<path d="M68.6436 92.647H65.2145V96.076H68.6436V92.647Z" fill="white"/>
<path d="M72.0726 92.647H68.6436V96.076H72.0726V92.647Z" fill="white"/>
<path d="M75.5017 92.647H72.0726V96.076H75.5017V92.647Z" fill="white"/>
<path d="M78.9307 92.647H75.5017V96.076H78.9307V92.647Z" fill="white"/>
<path d="M92.647 92.647H89.2179V96.076H92.647V92.647Z" fill="white"/>
<path d="M102.934 92.647H99.5051V96.076H102.934V92.647Z" fill="white"/>
<path d="M109.792 92.647H106.363V96.076H109.792V92.647Z" fill="white"/>
<path d="M113.221 92.647H109.792V96.076H113.221V92.647Z" fill="white"/>
<path d="M123.508 92.647H120.079V96.076H123.508V92.647Z" fill="white"/>
<path d="M126.938 92.647H123.508V96.076H126.938V92.647Z" fill="white"/>
<path d="M6.92061 96.076H3.49155V99.5051H6.92061V96.076Z" fill="white"/>
<path d="M17.2078 96.076H13.7787V99.5051H17.2078V96.076Z" fill="white"/>
<path d="M20.6368 96.076H17.2078V99.5051H20.6368V96.076Z" fill="white"/>
<path d="M24.0659 96.076H20.6368V99.5051H24.0659V96.076Z" fill="white"/>
<path d="M27.4949 96.076H24.0659V99.5051H27.4949V96.076Z" fill="white"/>
<path d="M37.7821 96.076H34.353V99.5051H37.7821V96.076Z" fill="white"/>
<path d="M48.0693 96.076H44.6402V99.5051H48.0693V96.076Z" fill="white"/>
<path d="M51.4983 96.076H48.0693V99.5051H51.4983V96.076Z" fill="white"/>
<path d="M61.7855 96.076H58.3564V99.5051H61.7855V96.076Z" fill="white"/>
<path d="M65.2145 96.076H61.7855V99.5051H65.2145V96.076Z" fill="white"/>
<path d="M78.9307 96.076H75.5017V99.5051H78.9307V96.076Z" fill="white"/>
<path d="M89.2179 96.076H85.7889V99.5051H89.2179V96.076Z" fill="white"/>
<path d="M92.647 96.076H89.2179V99.5051H92.647V96.076Z" fill="white"/>
<path d="M99.5051 96.076H96.076V99.5051H99.5051V96.076Z" fill="white"/>
<path d="M102.934 96.076H99.5051V99.5051H102.934V96.076Z" fill="white"/>
<path d="M106.363 96.076H102.934V99.5051H106.363V96.076Z" fill="white"/>
<path d="M109.792 96.076H106.363V99.5051H109.792V96.076Z" fill="white"/>
<path d="M113.221 96.076H109.792V99.5051H113.221V96.076Z" fill="white"/>
<path d="M120.079 96.076H116.65V99.5051H120.079V96.076Z" fill="white"/>
<path d="M123.508 96.076H120.079V99.5051H123.508V96.076Z" fill="white"/>
<path d="M126.938 96.076H123.508V99.5051H126.938V96.076Z" fill="white"/>
<path d="M30.924 99.5051H27.4949V102.934H30.924V99.5051Z" fill="white"/>
<path d="M37.7821 99.5051H34.353V102.934H37.7821V99.5051Z" fill="white"/>
<path d="M41.2111 99.5051H37.7821V102.934H41.2111V99.5051Z" fill="white"/>
<path d="M48.0693 99.5051H44.6402V102.934H48.0693V99.5051Z" fill="white"/>
<path d="M51.4983 99.5051H48.0693V102.934H51.4983V99.5051Z" fill="white"/>
<path d="M58.3564 99.5051H54.9274V102.934H58.3564L58.3564 99.5051Z" fill="white"/>
<path d="M68.6436 99.5051H65.2145V102.934H68.6436V99.5051Z" fill="white"/>
<path d="M72.0726 99.5051H68.6436V102.934H72.0726V99.5051Z" fill="white"/>
<path d="M75.5017 99.5051H72.0726V102.934H75.5017V99.5051Z" fill="white"/>
<path d="M78.9307 99.5051H75.5017V102.934H78.9307V99.5051Z" fill="white"/>
<path d="M82.3598 99.5051H78.9307V102.934H82.3598V99.5051Z" fill="white"/>
<path d="M92.647 99.5051H89.2179V102.934H92.647V99.5051Z" fill="white"/>
<path d="M96.076 99.5051H92.647V102.934H96.076V99.5051Z" fill="white"/>
<path d="M99.5051 99.5051H96.076V102.934H99.5051V99.5051Z" fill="white"/>
<path d="M113.221 99.5051H109.792V102.934H113.221V99.5051Z" fill="white"/>
<path d="M123.508 99.5051H120.079V102.934H123.508V99.5051Z" fill="white"/>
<path d="M126.938 99.5051H123.508V102.934H126.938V99.5051Z" fill="white"/>
<path d="M3.49155 102.934H0.0625V106.363H3.49155V102.934Z" fill="white"/>
<path d="M6.92061 102.934H3.49155V106.363H6.92061V102.934Z" fill="white"/>
<path d="M10.3497 102.934H6.92061V106.363H10.3497V102.934Z" fill="white"/>
<path d="M13.7787 102.934H10.3497V106.363H13.7787V102.934Z" fill="white"/>
<path d="M17.2078 102.934H13.7787V106.363H17.2078V102.934Z" fill="white"/>
<path d="M20.6368 102.934H17.2078V106.363H20.6368V102.934Z" fill="white"/>
<path d="M24.0659 102.934H20.6368V106.363H24.0659V102.934Z" fill="white"/>
<path d="M30.924 102.934H27.4949V106.363H30.924V102.934Z" fill="white"/>
<path d="M37.7821 102.934H34.353V106.363H37.7821V102.934Z" fill="white"/>
<path d="M44.6402 102.934H41.2111L41.2112 106.363H44.6402L44.6402 102.934Z" fill="white"/>
<path d="M58.3564 102.934H54.9274V106.363H58.3564V102.934Z" fill="white"/>
<path d="M65.2145 102.934H61.7855V106.363H65.2145V102.934Z" fill="white"/>
<path d="M72.0726 102.934H68.6436V106.363H72.0726V102.934Z" fill="white"/>
<path d="M78.9307 102.934H75.5017V106.363H78.9307V102.934Z" fill="white"/>
<path d="M82.3598 102.934H78.9307V106.363H82.3598V102.934Z" fill="white"/>
<path d="M85.7889 102.934H82.3598V106.363H85.7889V102.934Z" fill="white"/>
<path d="M92.647 102.934H89.2179V106.363H92.647V102.934Z" fill="white"/>
<path d="M99.5051 102.934H96.076V106.363H99.5051V102.934Z" fill="white"/>
<path d="M106.363 102.934H102.934V106.363H106.363V102.934Z" fill="white"/>
<path d="M113.221 102.934H109.792V106.363H113.221V102.934Z" fill="white"/>
<path d="M116.65 102.934H113.221V106.363H116.65V102.934Z" fill="white"/>
<path d="M126.938 102.934H123.508V106.363H126.938V102.934Z" fill="white"/>
<path d="M3.49155 106.363H0.0625V109.792H3.49155V106.363Z" fill="white"/>
<path d="M24.0659 106.363H20.6368V109.792H24.0659V106.363Z" fill="white"/>
<path d="M34.353 106.363H30.924V109.792H34.353V106.363Z" fill="white"/>
<path d="M41.2112 106.363H37.7821V109.792H41.2111L41.2112 106.363Z" fill="white"/>
<path d="M48.0693 106.363H44.6402L44.6402 109.792H48.0693V106.363Z" fill="white"/>
<path d="M51.4983 106.363H48.0693V109.792H51.4983V106.363Z" fill="white"/>
<path d="M54.9274 106.363H51.4983V109.792H54.9274L54.9274 106.363Z" fill="white"/>
<path d="M61.7855 106.363H58.3564L58.3564 109.792H61.7855L61.7855 106.363Z" fill="white"/>
<path d="M78.9307 106.363H75.5017V109.792H78.9307V106.363Z" fill="white"/>
<path d="M82.3598 106.363H78.9307V109.792H82.3598V106.363Z" fill="white"/>
<path d="M85.7889 106.363H82.3598V109.792H85.7889V106.363Z" fill="white"/>
<path d="M89.2179 106.363H85.7889V109.792H89.2179V106.363Z" fill="white"/>
<path d="M99.5051 106.363H96.076V109.792H99.5051V106.363Z" fill="white"/>
<path d="M113.221 106.363H109.792V109.792H113.221V106.363Z" fill="white"/>
<path d="M126.938 106.363H123.508V109.792H126.938V106.363Z" fill="white"/>
<path d="M3.49155 109.792H0.0625V113.221H3.49155V109.792Z" fill="white"/>
<path d="M10.3497 109.792H6.92061V113.221H10.3497V109.792Z" fill="white"/>
<path d="M13.7787 109.792H10.3497V113.221H13.7787V109.792Z" fill="white"/>
<path d="M17.2078 109.792H13.7787V113.221H17.2078V109.792Z" fill="white"/>
<path d="M24.0659 109.792H20.6368V113.221H24.0659V109.792Z" fill="white"/>
<path d="M34.353 109.792H30.924V113.221H34.353V109.792Z" fill="white"/>
<path d="M37.7821 109.792H34.353V113.221H37.7821V109.792Z" fill="white"/>
<path d="M41.2111 109.792H37.7821V113.221H41.2111V109.792Z" fill="white"/>
<path d="M51.4983 109.792H48.0693V113.221H51.4983V109.792Z" fill="white"/>
<path d="M58.3564 109.792H54.9274L54.9274 113.221H58.3564L58.3564 109.792Z" fill="white"/>
<path d="M65.2145 109.792H61.7855L61.7855 113.221H65.2145V109.792Z" fill="white"/>
<path d="M72.0726 109.792H68.6436V113.221H72.0726V109.792Z" fill="white"/>
<path d="M75.5017 109.792H72.0726V113.221H75.5017V109.792Z" fill="white"/>
<path d="M78.9307 109.792H75.5017V113.221H78.9307V109.792Z" fill="white"/>
<path d="M82.3598 109.792H78.9307V113.221H82.3598V109.792Z" fill="white"/>
<path d="M99.5051 109.792H96.076V113.221H99.5051V109.792Z" fill="white"/>
<path d="M102.934 109.792H99.5051V113.221H102.934V109.792Z" fill="white"/>
<path d="M106.363 109.792H102.934V113.221H106.363V109.792Z" fill="white"/>
<path d="M109.792 109.792H106.363V113.221H109.792V109.792Z" fill="white"/>
<path d="M113.221 109.792H109.792V113.221H113.221V109.792Z" fill="white"/>
<path d="M123.508 109.792H120.079V113.221H123.508V109.792Z" fill="white"/>
<path d="M3.49155 113.221H0.0625V116.65H3.49155V113.221Z" fill="white"/>
<path d="M10.3497 113.221H6.92061V116.65H10.3497V113.221Z" fill="white"/>
<path d="M13.7787 113.221H10.3497V116.65H13.7787V113.221Z" fill="white"/>
<path d="M17.2078 113.221H13.7787V116.65H17.2078V113.221Z" fill="white"/>
<path d="M24.0659 113.221H20.6368V116.65H24.0659V113.221Z" fill="white"/>
<path d="M30.924 113.221H27.4949V116.65H30.924V113.221Z" fill="white"/>
<path d="M41.2111 113.221H37.7821V116.65H41.2111V113.221Z" fill="white"/>
<path d="M44.6402 113.221H41.2111V116.65H44.6402V113.221Z" fill="white"/>
<path d="M48.0693 113.221H44.6402V116.65H48.0693V113.221Z" fill="white"/>
<path d="M51.4983 113.221H48.0693V116.65H51.4983V113.221Z" fill="white"/>
<path d="M54.9274 113.221H51.4983V116.65H54.9274L54.9274 113.221Z" fill="white"/>
<path d="M65.2145 113.221H61.7855V116.65H65.2145V113.221Z" fill="white"/>
<path d="M68.6436 113.221H65.2145V116.65H68.6436V113.221Z" fill="white"/>
<path d="M78.9307 113.221H75.5017V116.65H78.9307V113.221Z" fill="white"/>
<path d="M82.3598 113.221H78.9307V116.65H82.3598V113.221Z" fill="white"/>
<path d="M89.2179 113.221H85.7889V116.65H89.2179V113.221Z" fill="white"/>
<path d="M96.076 113.221H92.647V116.65H96.076V113.221Z" fill="white"/>
<path d="M99.5051 113.221H96.076V116.65H99.5051V113.221Z" fill="white"/>
<path d="M123.508 113.221H120.079V116.65H123.508V113.221Z" fill="white"/>
<path d="M126.938 113.221H123.508V116.65H126.938V113.221Z" fill="white"/>
<path d="M3.49155 116.65H0.0625V120.079H3.49155V116.65Z" fill="white"/>
<path d="M10.3497 116.65H6.92061V120.079H10.3497V116.65Z" fill="white"/>
<path d="M13.7787 116.65H10.3497V120.079H13.7787V116.65Z" fill="white"/>
<path d="M17.2078 116.65H13.7787V120.079H17.2078V116.65Z" fill="white"/>
<path d="M24.0659 116.65H20.6368V120.079H24.0659V116.65Z" fill="white"/>
<path d="M30.924 116.65H27.4949V120.079H30.924V116.65Z" fill="white"/>
<path d="M34.353 116.65H30.924V120.079H34.353V116.65Z" fill="white"/>
<path d="M54.9274 116.65H51.4983L51.4983 120.079H54.9274V116.65Z" fill="white"/>
<path d="M58.3564 116.65H54.9274V120.079H58.3564V116.65Z" fill="white"/>
<path d="M75.5017 116.65H72.0726V120.079H75.5017V116.65Z" fill="white"/>
<path d="M89.2179 116.65H85.7889V120.079H89.2179V116.65Z" fill="white"/>
<path d="M92.647 116.65H89.2179V120.079H92.647V116.65Z" fill="white"/>
<path d="M96.076 116.65H92.647V120.079H96.076V116.65Z" fill="white"/>
<path d="M99.5051 116.65H96.076V120.079H99.5051V116.65Z" fill="white"/>
<path d="M113.221 116.65H109.792V120.079H113.221V116.65Z" fill="white"/>
<path d="M116.65 116.65H113.221V120.079H116.65V116.65Z" fill="white"/>
<path d="M120.079 116.65H116.65V120.079H120.079V116.65Z" fill="white"/>
<path d="M3.49155 120.079H0.0625V123.508H3.49155V120.079Z" fill="white"/>
<path d="M24.0659 120.079H20.6368V123.508H24.0659V120.079Z" fill="white"/>
<path d="M30.924 120.079H27.4949V123.508H30.924V120.079Z" fill="white"/>
<path d="M34.353 120.079H30.924V123.508H34.353V120.079Z" fill="white"/>
<path d="M37.7821 120.079H34.353V123.508H37.7821V120.079Z" fill="white"/>
<path d="M51.4983 120.079H48.0693V123.508H51.4983L51.4983 120.079Z" fill="white"/>
<path d="M58.3564 120.079H54.9274L54.9274 123.508H58.3564V120.079Z" fill="white"/>
<path d="M61.7855 120.079H58.3564V123.508H61.7855V120.079Z" fill="white"/>
<path d="M82.3598 120.079H78.9307V123.508H82.3598V120.079Z" fill="white"/>
<path d="M85.7889 120.079H82.3598V123.508H85.7889V120.079Z" fill="white"/>
<path d="M92.647 120.079H89.2179V123.508H92.647V120.079Z" fill="white"/>
<path d="M96.076 120.079H92.647V123.508H96.076V120.079Z" fill="white"/>
<path d="M102.934 120.079H99.5051V123.508H102.934V120.079Z" fill="white"/>
<path d="M109.792 120.079H106.363V123.508H109.792V120.079Z" fill="white"/>
<path d="M120.079 120.079H116.65V123.508H120.079V120.079Z" fill="white"/>
<path d="M3.49155 123.508H0.0625V126.938H3.49155V123.508Z" fill="white"/>
<path d="M6.92061 123.508H3.49155V126.938H6.92061V123.508Z" fill="white"/>
<path d="M10.3497 123.508H6.92061V126.938H10.3497V123.508Z" fill="white"/>
<path d="M13.7787 123.508H10.3497V126.938H13.7787V123.508Z" fill="white"/>
<path d="M17.2078 123.508H13.7787V126.938H17.2078V123.508Z" fill="white"/>
<path d="M20.6368 123.508H17.2078V126.938H20.6368V123.508Z" fill="white"/>
<path d="M24.0659 123.508H20.6368V126.938H24.0659V123.508Z" fill="white"/>
<path d="M37.7821 123.508H34.353V126.938H37.7821V123.508Z" fill="white"/>
<path d="M41.2111 123.508H37.7821V126.938H41.2111V123.508Z" fill="white"/>
<path d="M44.6402 123.508H41.2111V126.938H44.6402V123.508Z" fill="white"/>
<path d="M51.4983 123.508H48.0693V126.938H51.4983V123.508Z" fill="white"/>
<path d="M58.3564 123.508H54.9274V126.938H58.3564V123.508Z" fill="white"/>
<path d="M65.2145 123.508H61.7855L61.7855 126.938H65.2145V123.508Z" fill="white"/>
<path d="M68.6436 123.508H65.2145V126.938H68.6436V123.508Z" fill="white"/>
<path d="M78.9307 123.508H75.5017V126.938H78.9307V123.508Z" fill="white"/>
<path d="M82.3598 123.508H78.9307V126.938H82.3598V123.508Z" fill="white"/>
<path d="M85.7889 123.508H82.3598V126.938H85.7889V123.508Z" fill="white"/>
<path d="M92.647 123.508H89.2179V126.938H92.647V123.508Z" fill="white"/>
<path d="M96.076 123.508H92.647V126.938H96.076V123.508Z" fill="white"/>
<path d="M99.5051 123.508H96.076V126.938H99.5051V123.508Z" fill="white"/>
<path d="M102.934 123.508H99.5051V126.938H102.934V123.508Z" fill="white"/>
<path d="M106.363 123.508H102.934V126.938H106.363V123.508Z" fill="white"/>
<path d="M113.221 123.508H109.792V126.938H113.221V123.508Z" fill="white"/>
<path d="M116.65 123.508H113.221V126.938H116.65V123.508Z" fill="white"/>
<path d="M120.079 123.508H116.65V126.938H120.079V123.508Z" fill="white"/>
<path d="M123.508 123.508H120.079V126.938H123.508V123.508Z" fill="white"/>
<path d="M126.938 123.508H123.508V126.938H126.938V123.508Z" fill="white"/>
</svg>
