<svg width="9" height="9" viewBox="0 0 9 9" fill="none" xmlns="http://www.w3.org/2000/svg">
<g clip-path="url(#clip0_2210_5168)">
<path d="M7.71415 0C7.53663 0 7.39272 0.143908 7.39272 0.321435V1.4956C5.73787 -0.106523 3.09759 -0.0637709 1.49547 1.59105C0.740422 2.37094 0.319206 3.41449 0.321297 4.49999C0.321297 4.67752 0.465205 4.82143 0.642732 4.82143C0.820259 4.82143 0.964148 4.67752 0.964148 4.49999C0.964544 2.54728 2.54784 0.964586 4.50057 0.964982C5.4923 0.96517 6.43834 1.38187 7.10795 2.11339L5.68403 2.58813C5.51539 2.64423 5.42414 2.82641 5.48025 2.99505C5.53635 3.16368 5.71853 3.25493 5.88717 3.19883L7.81574 2.55598C7.94739 2.51213 8.03604 2.38873 8.03561 2.24999V0.321416C8.03559 0.143908 7.89168 0 7.71415 0Z" fill="#A9A9B5"/>
<path d="M8.35723 4.17871C8.17971 4.17871 8.0358 4.32262 8.0358 4.50014C8.0354 6.45285 6.45211 8.03554 4.49938 8.03514C3.50766 8.03496 2.56162 7.61826 1.89201 6.88674L3.31593 6.412C3.48457 6.3559 3.57581 6.17372 3.51971 6.00508C3.4636 5.83645 3.28143 5.7452 3.11279 5.8013L1.18422 6.44415C1.05257 6.488 0.963924 6.6114 0.964357 6.75014V8.67871C0.964357 8.85623 1.10827 9.00014 1.28579 9.00014C1.46332 9.00014 1.60723 8.85623 1.60723 8.67871V7.50452C3.26206 9.10665 5.90236 9.06391 7.50446 7.40908C8.2595 6.62919 8.68072 5.58564 8.67863 4.50014C8.67867 4.32262 8.53476 4.17871 8.35723 4.17871Z" fill="#A9A9B5"/>
</g>
<defs>
<clipPath id="clip0_2210_5168">
<rect width="9" height="9" fill="white"/>
</clipPath>
</defs>
</svg>
