<svg width="300" height="51" viewBox="0 0 300 51" fill="none" xmlns="http://www.w3.org/2000/svg">
<mask id="path-1-inside-1_2075_5207" fill="white">
<path fill-rule="evenodd" clip-rule="evenodd" d="M281 0H0V51H300V19.38L281 0ZM300 14.5922V0H285.694L300 14.5922Z"/>
</mask>
<path d="M281 0L281.714 -0.700071L281.42 -1H281V0ZM0 0V-1H-1V0H0ZM0 51H-1V52H0V51ZM300 51V52H301V51H300ZM300 19.38H301V18.9716L300.714 18.6799L300 19.38ZM300 14.5922L299.286 15.2922L301 17.0406V14.5922H300ZM300 0H301V-1H300V0ZM285.694 0V-1H283.313L284.98 0.700071L285.694 0ZM281 -1H0V1H281V-1ZM-1 0V51H1V0H-1ZM0 52H300V50H0V52ZM301 51V19.38H299V51H301ZM300.714 18.6799L281.714 -0.700071L280.286 0.700071L299.286 20.0801L300.714 18.6799ZM301 14.5922V0H299V14.5922H301ZM300 -1H285.694V1H300V-1ZM284.98 0.700071L299.286 15.2922L300.714 13.8921L286.408 -0.700071L284.98 0.700071Z" fill="#DB213D" mask="url(#path-1-inside-1_2075_5207)"/>
</svg>
