<svg width="300" height="50" viewBox="0 0 300 50" fill="none" xmlns="http://www.w3.org/2000/svg">
<mask id="path-1-inside-1_2075_5207" fill="white">
<path fill-rule="evenodd" clip-rule="evenodd" d="M281 0H0V50H300V19L281 0ZM300 14.306V0H285.694L300 14.306Z"/>
</mask>
<path d="M281 0L281.707 -0.707107L281.414 -1H281V0ZM0 0V-1H-1V0H0ZM0 50H-1V51H0V50ZM300 50V51H301V50H300ZM300 19H301V18.5858L300.707 18.2929L300 19ZM300 14.306L299.293 15.0131L301 16.7202V14.306H300ZM300 0H301V-1H300V0ZM285.694 0V-1H283.28L284.987 0.707107L285.694 0ZM281 -1H0V1H281V-1ZM-1 0V50H1V0H-1ZM0 51H300V49H0V51ZM301 50V19H299V50H301ZM300.707 18.2929L281.707 -0.707107L280.293 0.707107L299.293 19.7071L300.707 18.2929ZM301 14.306V0H299V14.306H301ZM300 -1H285.694V1H300V-1ZM284.987 0.707107L299.293 15.0131L300.707 13.5989L286.401 -0.707107L284.987 0.707107Z" fill="#DB213D" mask="url(#path-1-inside-1_2075_5207)"/>
</svg>
