<svg width="56" height="25" fill="none" xmlns="http://www.w3.org/2000/svg"><path d="M47.404 6.203c-.093.13-.156.228-.227.32-1.557 2.058-3.118 4.115-4.673 6.176-.194.26-.376.535-.545.81-.14.225-.202.482-.195.748.019.582.415 1.006 1.05 1.11.227.039.456.058.686.061 1.37.006 2.739.006 4.108 0 .24 0 .482-.022.718-.06.827-.133 1.347-.7 1.437-1.548.025-.26.041-.52.041-.779.003-2.53.007-5.062-.003-7.591 0-.345-.026-.697-.096-1.035-.16-.744-.66-1.19-1.417-1.295a5.915 5.915 0 0 0-.785-.057c-2.464-.003-4.928-.003-7.392-.003h-.422c.01-.643-.077-1.25.093-1.843.175-.614.606-.994 1.229-1.143.188-.044.389-.07.584-.07 2.256-.002 4.513-.012 6.767.01 1.152.01 2.294.14 3.392.516 2.06.706 3.317 2.147 3.901 4.198.255.896.348 1.81.345 2.738-.003 1.305.003 2.606-.01 3.91-.01 1.095-.191 2.162-.606 3.181-.795 1.954-2.27 3.115-4.31 3.61-1.027.25-2.074.325-3.127.328-1.753.004-3.505.004-5.258-.003-.667-.003-1.334-.057-1.985-.218-.814-.2-1.478-.649-2.04-1.247a14.715 14.715 0 0 1-.87-1.02 84.771 84.771 0 0 1-1.463-1.924 5.998 5.998 0 0 1-.479-.741c-.347-.65-.35-1.314-.019-1.97.122-.24.269-.474.431-.69 1.085-1.446 2.177-2.887 3.262-4.333.083-.111.17-.177.323-.174 2.464.006 4.928.003 7.392.006.042-.003.074.006.163.022zM11.703 18.48c.099-.14.166-.235.236-.33 1.602-2.12 3.205-4.238 4.804-6.36.156-.208.313-.424.421-.658a1.87 1.87 0 0 0 .182-.649 1.052 1.052 0 0 0-.747-1.102 2.674 2.674 0 0 0-.77-.136c-2.09-.01-4.184-.006-6.274-.006-.064 0-.128.01-.227.019v15.395H3.117c-.02-.849-.007-1.703-.007-2.555-.003-.858 0-1.716 0-2.574V9.245H.04C.024 9.15.004 9.078.004 9.008c-.003-.348-.01-.697.004-1.042C.043 6.877.719 6.21 1.81 6.184c.208-.006.415-.006.626-.006 4.27 0 8.541-.003 12.812.003.766 0 1.532.025 2.295.076 1.079.07 2.014.478 2.767 1.26.31.323.616.649.89 1a95.116 95.116 0 0 1 1.657 2.188c.144.19.275.395.387.604.357.659.376 1.33.022 1.995a6.341 6.341 0 0 1-.527.823c-1.037 1.386-2.084 2.763-3.128 4.147-.102.133-.194.228-.395.228-2.442-.01-4.884-.006-7.326-.006-.041-.004-.083-.01-.188-.016z" fill="#fff"/><path d="M21.036 18.496c.096-.14.153-.228.217-.31 2.969-3.926 5.94-7.851 8.906-11.777.111-.149.22-.237.424-.237 2.42.006 4.839.003 7.259.006.054 0 .108.006.175.01.01.151-.105.234-.179.329-1.736 2.304-3.479 4.603-5.218 6.904-1.217 1.605-2.433 3.21-3.642 4.821a.567.567 0 0 1-.514.257c-2.353-.01-4.708-.006-7.06-.006-.1.003-.199.003-.368.003z" fill="#fff"/></svg>