<?xml version="1.0" encoding="utf-8"?><svg viewBox="0 0 16 19" xmlns="http://www.w3.org/2000/svg" xmlns:xlink="http://www.w3.org/1999/xlink"><style>:root>svg{display:none}:root>svg:target{display:block}</style><svg fill="none" viewBox="0 0 9 14" id="arr-down" xmlns="http://www.w3.org/2000/svg"><path d="M9 8.974H5.25V0h-1.5v8.974H0L4.5 14 9 8.974z" fill="currentColor"/></svg><svg fill="none" viewBox="0 0 16 19" id="download" xmlns="http://www.w3.org/2000/svg"><path fill-rule="evenodd" clip-rule="evenodd" d="M1 17h14a1 1 0 010 2H1a1 1 0 010-2zm8-5.825l3.243-3.242 1.414 1.414L8 15.004 2.343 9.347l1.414-1.414L7 11.175V0h2v11.175z" fill="currentColor"/></svg><svg fill="none" viewBox="0 0 9 9" id="refresh" xmlns="http://www.w3.org/2000/svg"><g clip-path="url(#cclip0_2210_5168)" fill="currentColor"><path d="M7.714 0a.321.321 0 00-.321.321v1.175A4.17 4.17 0 00.32 4.5a.321.321 0 10.643 0 3.536 3.536 0 016.144-2.387l-1.424.475a.322.322 0 10.203.61l1.929-.642a.321.321 0 00.22-.306V.321A.321.321 0 007.714 0zM8.357 4.179a.321.321 0 00-.321.321 3.536 3.536 0 01-6.144 2.387l1.424-.475a.322.322 0 10-.203-.61l-1.929.642a.321.321 0 00-.22.306V8.68a.321.321 0 00.643 0V7.505A4.17 4.17 0 008.68 4.5a.321.321 0 00-.322-.321z"/></g><defs><clipPath id="cclip0_2210_5168"><path fill="#fff" d="M0 0h9v9H0z"/></clipPath></defs></svg></svg>