<?xml version="1.0" encoding="utf-8"?><svg viewBox="0 0 640 512" xmlns="http://www.w3.org/2000/svg" xmlns:xlink="http://www.w3.org/1999/xlink"><style>:root>svg{display:none}:root>svg:target{display:block}</style><svg fill="none" viewBox="0 0 9 14" id="arr-down" xmlns="http://www.w3.org/2000/svg"><path d="M9 8.974H5.25V0h-1.5v8.974H0L4.5 14 9 8.974z" fill="currentColor"/></svg><svg fill="none" viewBox="0 0 16 19" id="download" xmlns="http://www.w3.org/2000/svg"><path fill-rule="evenodd" clip-rule="evenodd" d="M1 17h14a1 1 0 010 2H1a1 1 0 010-2zm8-5.825l3.243-3.242 1.414 1.414L8 15.004 2.343 9.347l1.414-1.414L7 11.175V0h2v11.175z" fill="currentColor"/></svg><svg aria-hidden="true" data-prefix="fas" data-icon="eye-slash" class="csvg-inline--fa cfa-eye-slash cfa-w-20" viewBox="0 0 640 512" id="hide-pass" xmlns="http://www.w3.org/2000/svg"><path fill="currentColor" d="M320 400c-75.85 0-137.25-58.71-142.9-133.11L72.2 185.82c-13.79 17.3-26.48 35.59-36.72 55.59a32.35 32.35 0 000 29.19C89.71 376.41 197.07 448 320 448c26.91 0 52.87-4 77.89-10.46L346 397.39a144.13 144.13 0 01-26 2.61zm313.82 58.1l-110.55-85.44a331.25 331.25 0 0081.25-102.07 32.35 32.35 0 000-29.19C550.29 135.59 442.93 64 320 64a308.15 308.15 0 00-147.32 37.7L45.46 3.37A16 16 0 0023 6.18L3.37 31.45A16 16 0 006.18 53.9l588.36 454.73a16 16 0 0022.46-2.81l19.64-25.27a16 16 0 00-2.82-22.45zm-183.72-142l-39.3-30.38A94.75 94.75 0 00416 256a94.76 94.76 0 00-121.31-92.21A47.65 47.65 0 01304 192a46.64 46.64 0 01-1.54 10l-73.61-56.89A142.31 142.31 0 01320 112a143.92 143.92 0 01144 144c0 21.63-5.29 41.79-13.9 60.11z"/></svg><svg fill="none" viewBox="0 0 20 3" id="minus" xmlns="http://www.w3.org/2000/svg"><path stroke="currentColor" stroke-width="2" d="M0 1.25h20M0 1.25h20"/></svg><svg fill="none" viewBox="0 0 20 20" id="plus" xmlns="http://www.w3.org/2000/svg"><path stroke="currentColor" stroke-width="2" d="M0 10.25h20M0 10.25h20M10.25 20V0M10.25 20V0"/></svg><svg fill="none" viewBox="0 0 9 9" id="refresh" xmlns="http://www.w3.org/2000/svg"><g clip-path="url(#fclip0_2210_5168)" fill="currentColor"><path d="M7.714 0a.321.321 0 00-.321.321v1.175A4.17 4.17 0 00.32 4.5a.321.321 0 10.643 0 3.536 3.536 0 016.144-2.387l-1.424.475a.322.322 0 10.203.61l1.929-.642a.321.321 0 00.22-.306V.321A.321.321 0 007.714 0zM8.357 4.179a.321.321 0 00-.321.321 3.536 3.536 0 01-6.144 2.387l1.424-.475a.322.322 0 10-.203-.61l-1.929.642a.321.321 0 00-.22.306V8.68a.321.321 0 00.643 0V7.505A4.17 4.17 0 008.68 4.5a.321.321 0 00-.322-.321z"/></g><defs><clipPath id="fclip0_2210_5168"><path fill="#fff" d="M0 0h9v9H0z"/></clipPath></defs></svg><svg fill="none" viewBox="0 0 24 24" id="show-pass" xmlns="http://www.w3.org/2000/svg"><path d="M12 4.802c-4.347 0-8.687 2.401-12 7.197 6.626 9.599 17.374 9.599 24 0-3.313-4.796-7.653-7.197-12-7.197zm0 12a4.809 4.809 0 01-4.809-4.803A4.814 4.814 0 0112 7.19 4.809 4.809 0 0116.803 12 4.804 4.804 0 0112 16.801z" fill="currentColor"/><path d="M12 14.4a2.401 2.401 0 100-4.802 2.401 2.401 0 000 4.803z" fill="currentColor"/></svg></svg>