<svg width="49" height="58" fill="none" xmlns="http://www.w3.org/2000/svg"><path d="M25.455 1.355c-2.789.385-5.396.555-7.568.537l-.947 2.652s1.786.64 2.44 1.547c.648.908.398 2.21-.069 3.189L7.015 34.548c-.862 1.766-1.932 3.255-4.013 3.425-.317.027-1.977.153-1.977.153l-.957 2.66h15.308a9.048 9.048 0 0 1-.345-2.468c0-.072.004-.139.004-.206-.498-.098-1.038-.241-1.437-.42-1.179-.523-1.464-1.306-.87-2.496L24.004 12.84 27.5 22.96l12.25-1.556L32.26 0c-1.963.537-4.289 1.006-6.805 1.355zm7.785 40.782l-.218.416a9.388 9.388 0 0 1-3.718 3.85 9.673 9.673 0 0 1-4.42 1.244c-.01 0-.16.004-.314.004-.113 0-.177-.004-.38-.004-3.256-.125-6.253-1.887-7.885-4.66a8.156 8.156 0 0 1-.24-.434l-.218-.416H0s.122.917 1.202 2.29c.77.984 2.153 2.267 4.411 2.63l.526.621c.807.957 2.154 2.066 4.221 2.402l.526.622c.807.956 2.154 2.066 4.222 2.401l.526.626c.96 1.14 2.693 2.5 5.504 2.5h1.514c.254 1.033.694 1.771 1.429 1.771h.775c.739 0 1.174-.738 1.428-1.77h1.578c2.811 0 4.543-1.36 5.504-2.5l.526-.627c2.068-.335 3.415-1.445 4.222-2.397l.526-.626c2.067-.336 3.414-1.445 4.22-2.402l.522-.621c2.666-.425 4.113-2.134 4.766-3.126.616-.935.852-1.794.852-1.794H33.24zM21.137 55.464c-2.526 0-4.063-1.225-4.901-2.222h6.107c.01.747.059 1.52.163 2.222h-1.369zm2.943 1.771c-.504 0-.912-1.753-.957-3.993h.544a.408.408 0 0 0 .413-.403.407.407 0 0 0-.413-.398H16.39c-2.521 0-4.063-1.225-4.902-2.223h4.924a.41.41 0 0 0 .413-.402.41.41 0 0 0-.413-.403h-4.77c-2.525 0-4.062-1.22-4.9-2.222h6.556a.408.408 0 0 0 .417-.398.409.409 0 0 0-.417-.403H6.896c-4.257 0-5.73-3.488-5.73-3.488H15.36c.082.157.168.313.259.47 1.832 3.112 5.096 4.906 8.506 5.044.508.112.916 2.04.916 4.405 0 2.438-.43 4.414-.961 4.414zM42.104 46.39h-6.402a.411.411 0 0 0-.418.403c0 .219.186.402.418.402h6.556c-.839.998-2.38 2.218-4.902 2.218h-4.77a.411.411 0 0 0-.417.403c0 .22.186.402.418.402h4.924c-.84.998-2.38 2.223-4.902 2.223h-3.137a.407.407 0 0 0-.413.398c0 .224.186.403.413.403h3.291c-.838.997-2.38 2.222-4.901 2.222h-1.433c.127-.831.168-1.766.168-2.643 0-1.641-.145-3.497-.716-4.48a10.37 10.37 0 0 0 3.817-1.271 10.143 10.143 0 0 0 4.031-4.168h14.106s-1.474 3.488-5.731 3.488z" fill="#fff"/><path d="M33.707 40.79h15.225l-2.271-3.456-4.462-12.724c-.263-.76-1.346-1.963-3.35-1.735-1.96.22-14.405 1.865-19.629 2.532l-5.245 10.397c-.118.242-.15.38-.155.439.041.035.136.111.354.205.227.103.59.21 1.002.3a9.31 9.31 0 0 1 4.616-6.503 9.61 9.61 0 0 1 4.697-1.252h.095c3.27.018 6.443 1.69 8.193 4.665a9.13 9.13 0 0 1 1.274 4.602v.098a9.2 9.2 0 0 1-.344 2.433zm7.558-3.881a.492.492 0 0 1-.159.027c-.376 0-.816-.394-1.047-.962-.267-.657-.159-1.297.24-1.435.4-.134.934.286 1.202.939.268.653.159 1.297-.236 1.431zm2.648-2.308c.354-.12.834.25 1.07.832.236.581.14 1.15-.213 1.27a.37.37 0 0 1-.14.023c-.332 0-.721-.35-.93-.855-.236-.581-.14-1.149.213-1.27zm-2.135-2.97l.761-1.489.163 2.908-.752.035-2.952-2.697 2.78 1.244zm-2.335-7.101c.57-.107 1.346.563 1.727 1.498.385.935.231 1.785-.34 1.892a.668.668 0 0 1-.163.009c-.549-.027-1.215-.658-1.565-1.507-.38-.935-.23-1.785.34-1.892zm-17.126 2.285l14.269-1.655.272 1.655h-14.54z" fill="#fff"/><path d="M29.105 37.472l-.05 1.253c-.436-.112-1.302.013-1.737.206-1.478.648-2.235 1.95-1.863 3.8l-1.143.207c-.195-.586-.658-1.172-1.093-1.503-.276-.206-.467-.318-.984-.492l.114-1.033c.403.031.807.031 1.224-.063.966-.188 2.317-.997 2.457-2.965.018-.237-.045-.903-.158-1.154l1.06-.174c.518 1.154 1.048 1.49 2.173 1.918z" fill="#fff"/><path d="M24.539 30.084c-4.584 0-8.334 3.695-8.334 8.225 0 4.535 3.75 8.229 8.334 8.229 4.597 0 8.343-3.694 8.343-8.23 0-4.53-3.746-8.224-8.343-8.224zm-6.434 4.075c.802-1.096 1.03-1.302 1.673-1.838.272-.175.499-.412.562-.336.014 1.807-.82 2.536-2.122 3.046a4.202 4.202 0 0 1-.675.156c.063-.268.48-.916.562-1.028zm11.897 9.494c-.303.318-1.188 1.015-1.704 1.297-.318.067-1.238-.268-1.637-.568a3.48 3.48 0 0 1-.807-.81l-1.347.206c.032.73-.258 1.713-.662 2.107-.113-.014-.53-.032-1.573-.313-1.161-.318-2.077-.904-2.93-1.682-.271-.237-.979-.934-1.124-1.283.014-.206.853-1.033 1.737-1.49.435-.223 1.043-.317 1.623-.317l.177-1.064c-.304-.126-.612-.269-.884-.488-.418-.349-.658-.698-.98-1.35l-.53.08c.077.349.127.648.14.885.018 1.414-.625 2.38-1.782 2.934-.113-.143-.403-.81-.516-1.158-.53-1.565-.431-3.216 0-4.66.594.112.87.304 1.256.621.272.237.385.425.675.855l.594-.08c-.24-1.995 1.016-3.453 2.784-3.726l-.05-.774c-.675-.349-1.093-.617-1.383-1.333.227-.143.594-.286.884-.38 1.447-.474 2.43-.554 3.927-.33.657.093 1.011.174.802.536-.548.935-1.3 1.632-2.734 1.726-.258.018-.58-.031-.788-.062l.018.617c.866.098 1.605.51 2.026 1.015.064.063.24.304.336.447l1.142-.174c0-.541-.018-.904.096-1.35.145-.712.934-1.727 1.578-1.884 1.591.935 2.779 2.375 3.377 3.864.11.287.336.935.318 1.127-.753.604-1.415.855-2.235.855l-.032 1.382c.839.38 1.818 1.153 1.818 2.437-.354.858-1.061 1.713-1.61 2.285z" fill="#fff"/></svg>