<svg width="24" height="24" viewBox="0 0 24 24" fill="none" xmlns="http://www.w3.org/2000/svg">
<path d="M12 4.80176C7.65329 4.80176 3.313 7.20304 0 11.9992C6.626 21.5979 17.374 21.5979 24 11.9992C20.687 7.20304 16.3467 4.80176 12 4.80176ZM12 16.8017C9.34831 16.8017 7.19101 14.6508 7.19101 11.9991C7.19101 9.34744 9.34831 7.19014 12 7.19014C14.6517 7.19014 16.8026 9.34744 16.8026 11.9991C16.8026 14.6508 14.6517 16.8017 12 16.8017Z" fill="currentColor"/>
<path d="M11.9999 14.4007C13.3261 14.4007 14.4012 13.3256 14.4012 11.9994C14.4012 10.6732 13.3261 9.59814 11.9999 9.59814C10.6737 9.59814 9.59863 10.6732 9.59863 11.9994C9.59863 13.3256 10.6737 14.4007 11.9999 14.4007Z" fill="currentColor"/>
</svg>
